<svg width="70" height="24" viewBox="0 0 70 24" fill="none" xmlns="http://www.w3.org/2000/svg">
<path d="M2.6 1.224C3.304 1.192 3.992 1.176 4.664 1.176C5.352 1.176 6.072 1.248 6.824 1.392C7.592 1.536 8.344 1.808 9.08 2.208C9.832 2.592 10.464 3.096 10.976 3.72C11.504 4.328 11.928 5.136 12.248 6.144C12.568 7.152 12.728 8.376 12.728 9.816C12.728 11.256 12.488 12.552 12.008 13.704C11.544 14.84 10.904 15.712 10.088 16.32C8.504 17.504 6.592 18.096 4.352 18.096C3.568 18.096 2.744 18.064 1.88 18H0.68V1.224H2.6ZM2.672 17.808C3.008 17.84 3.432 17.856 3.944 17.856C4.456 17.856 4.84 17.848 5.096 17.832C5.352 17.816 5.704 17.752 6.152 17.64C6.6 17.512 7.016 17.344 7.4 17.136C7.784 16.928 8.184 16.624 8.6 16.224C9.032 15.808 9.4 15.32 9.704 14.76C10.392 13.448 10.736 11.736 10.736 9.624C10.736 8.12 10.552 6.824 10.184 5.736C9.816 4.632 9.392 3.816 8.912 3.288C8.448 2.76 7.88 2.344 7.208 2.04C6.536 1.72 6 1.536 5.6 1.488C5.2 1.44 4.736 1.416 4.208 1.416C3.68 1.416 3.168 1.44 2.672 1.488V17.808ZM24.5673 18C23.4793 18 22.7353 17.792 22.3353 17.376C21.9673 17.024 21.7833 16.72 21.7833 16.464V15.96C20.9993 17.384 19.7433 18.096 18.0153 18.096C15.9993 18.096 14.8553 17.184 14.5833 15.36C14.5513 15.168 14.5353 14.976 14.5353 14.784C14.5353 14.576 14.5673 14.352 14.6313 14.112C14.6953 13.872 14.8793 13.608 15.1833 13.32C15.7913 12.744 17.1273 12.392 19.1913 12.264C19.7033 12.216 20.1753 12.192 20.6073 12.192C21.0393 12.192 21.4313 12.208 21.7833 12.24V8.256C21.7513 8.24 21.7513 8.168 21.7833 8.04C21.8153 7.896 21.7833 7.72 21.6873 7.512C21.6073 7.288 21.4953 7.072 21.3513 6.864C21.2073 6.656 20.9513 6.48 20.5833 6.336C20.2153 6.176 19.7353 6.096 19.1433 6.096C18.5513 6.096 17.8553 6.208 17.0553 6.432C16.2713 6.64 15.6953 6.848 15.3273 7.056L15.2313 6.888C16.6553 6.232 18.1033 5.904 19.5753 5.904C21.2233 5.904 22.3113 6.2 22.8393 6.792C23.2553 7.256 23.4633 7.744 23.4633 8.256V16.296C23.4633 16.76 23.5513 17.12 23.7273 17.376C23.9193 17.616 24.1113 17.744 24.3033 17.76L24.5673 17.808H25.3113V18H24.5673ZM18.3993 17.904C19.2473 17.904 20.0073 17.616 20.6793 17.04C21.3673 16.448 21.7353 15.88 21.7833 15.336V12.432C21.3513 12.4 20.9113 12.384 20.4633 12.384C20.0313 12.384 19.5993 12.408 19.1673 12.456C17.9513 12.6 17.1593 12.872 16.7913 13.272C16.4233 13.672 16.2393 14.224 16.2393 14.928C16.2393 15.056 16.2473 15.2 16.2633 15.36C16.4073 17.056 17.1193 17.904 18.3993 17.904ZM30.1486 18C28.7406 18 27.8526 17.632 27.4846 16.896C27.4046 16.736 27.3646 16.592 27.3646 16.464V0.0239997H29.0446V16.296C29.0446 16.76 29.1326 17.12 29.3086 17.376C29.5006 17.616 29.6926 17.744 29.8846 17.76L30.1486 17.808H30.8926V18H30.1486ZM42.1454 18C41.0574 18 40.3134 17.792 39.9134 17.376C39.5454 17.024 39.3614 16.72 39.3614 16.464V15.96C38.5774 17.384 37.3214 18.096 35.5934 18.096C33.5774 18.096 32.4334 17.184 32.1614 15.36C32.1294 15.168 32.1134 14.976 32.1134 14.784C32.1134 14.576 32.1454 14.352 32.2094 14.112C32.2734 13.872 32.4574 13.608 32.7614 13.32C33.3694 12.744 34.7054 12.392 36.7694 12.264C37.2814 12.216 37.7534 12.192 38.1854 12.192C38.6174 12.192 39.0094 12.208 39.3614 12.24V8.256C39.3294 8.24 39.3294 8.168 39.3614 8.04C39.3934 7.896 39.3614 7.72 39.2654 7.512C39.1854 7.288 39.0734 7.072 38.9294 6.864C38.7854 6.656 38.5294 6.48 38.1614 6.336C37.7934 6.176 37.3134 6.096 36.7214 6.096C36.1294 6.096 35.4334 6.208 34.6334 6.432C33.8494 6.64 33.2734 6.848 32.9054 7.056L32.8094 6.888C34.2334 6.232 35.6814 5.904 37.1534 5.904C38.8014 5.904 39.8894 6.2 40.4174 6.792C40.8334 7.256 41.0414 7.744 41.0414 8.256V16.296C41.0414 16.76 41.1294 17.12 41.3054 17.376C41.4974 17.616 41.6894 17.744 41.8814 17.76L42.1454 17.808H42.8894V18H42.1454ZM35.9774 17.904C36.8254 17.904 37.5854 17.616 38.2574 17.04C38.9454 16.448 39.3134 15.88 39.3614 15.336V12.432C38.9294 12.4 38.4894 12.384 38.0414 12.384C37.6094 12.384 37.1774 12.408 36.7454 12.456C35.5294 12.6 34.7374 12.872 34.3694 13.272C34.0014 13.672 33.8174 14.224 33.8174 14.928C33.8174 15.056 33.8254 15.2 33.8414 15.36C33.9854 17.056 34.6974 17.904 35.9774 17.904ZM54.17 18C53.514 18 53.01 17.856 52.658 17.568C52.322 17.28 52.146 16.992 52.13 16.704L52.106 16.296V8.76C52.106 7.496 51.778 6.688 51.122 6.336C50.786 6.176 50.37 6.096 49.874 6.096C48.85 6.096 47.93 6.504 47.114 7.32C46.298 8.12 45.89 8.84 45.89 9.48V18H44.21V6H45.89V8.736C46.162 8.048 46.666 7.408 47.402 6.816C48.138 6.208 48.946 5.904 49.826 5.904C50.706 5.904 51.418 5.992 51.962 6.168C52.522 6.328 52.93 6.56 53.186 6.864C53.586 7.36 53.786 8 53.786 8.784V16.296C53.786 16.76 53.874 17.12 54.05 17.376C54.242 17.616 54.434 17.744 54.626 17.76L54.89 17.808H55.634V18H54.17ZM59.7948 22.296C59.2828 23.432 58.6508 24 57.8988 24C57.5628 24 57.1708 23.944 56.7228 23.832V23.64C57.0908 23.736 57.4188 23.784 57.7068 23.784C58.5228 23.784 59.1468 23.288 59.5788 22.296L61.5948 18H61.5708L57.1068 6H58.7868L62.5068 16.008L66.1788 8.4C66.3708 8.064 66.4668 7.664 66.4668 7.2C66.4668 6.736 66.3388 6.384 66.0828 6.144L66.2268 6C66.2908 6.032 66.3708 6.128 66.4668 6.288C66.5788 6.448 66.6428 6.592 66.6588 6.72C66.6908 6.848 66.7068 6.968 66.7068 7.08C66.7068 7.512 66.6108 7.952 66.4188 8.4L61.8108 18L59.7948 22.296ZM68.9947 18.096C68.7867 18.096 68.6027 18.024 68.4427 17.88C68.2987 17.72 68.2267 17.536 68.2267 17.328C68.2267 17.104 68.2987 16.92 68.4427 16.776C68.5867 16.632 68.7627 16.56 68.9707 16.56C69.1947 16.56 69.3787 16.64 69.5227 16.8C69.6827 16.944 69.7627 17.12 69.7627 17.328C69.7627 17.536 69.6827 17.72 69.5227 17.88C69.3787 18.024 69.2027 18.096 68.9947 18.096Z" fill="white"/>
</svg>
