<svg enable-background="new 0 0 256 256" viewBox="0 0 256 256" xmlns="http://www.w3.org/2000/svg"><g fill="#c00"><path d="m88.8 162.7h48.7v18h-48.7z"/><path d="m148.4 162.7h48.7v18h-48.7z"/><path d="m148.4 104.5h48.7v18h-48.7z"/><path d="m58.9 133.5h48.7v18h-48.7z"/><path d="m118.6 133.5h48.7v18h-48.7z"/><path d="m128 0c-70.7 0-128 57.3-128 128s57.3 128 128 128 128-57.3 128-128-57.3-128-128-128zm80 128c0 3-2.5 5.5-5.5 5.5h-24.3v18.2h24.3c3 0 5.5 2.5 5.5 5.5v28.9c0 3-2.5 5.5-5.5 5.5h-119.2c-3 0-5.5-2.5-5.5-5.5v-23.7h-24.3c-3 0-5.5-2.5-5.5-5.5v-28.9c0-3 2.5-5.5 5.5-5.5h24.3v-18.2h-24.3c-3 0-5.5-2.5-5.5-5.5v-28.9c0-3 2.5-5.5 5.5-5.5h119.2c3 0 5.5 2.5 5.5 5.5v23.7h24.3c3 0 5.5 2.5 5.5 5.5z"/><path d="m88.8 104.5h48.7v18h-48.7z"/><path d="m118.6 75.3h48.7v18h-48.7z"/><path d="m58.9 75.3h48.7v18h-48.7z"/></g></svg>