<svg viewBox="0 0 512 512" xmlns="http://www.w3.org/2000/svg"><text x="1296.5601" y="369.84"><tspan x="1296.5601" y="369.84"/></text><text transform="scale(4.0128 .2492)" x="520.17999" y="1134.95"/><text x="1877.8199" y="289.84"><tspan x="1877.8199" y="289.84"/></text><text transform="scale(4.0128 .2492)" x="665.03003" y="813.90997"/><text x="806.25" y="108.58"><tspan x="806.25" y="108.58"/></text><text transform="scale(4.0128 .2492)" x="398" y="86.559998"/><text x="1904.3" y="-107.89"><tspan x="1904.3" y="-107.89"/></text><text transform="scale(4.0128 .2492)" x="671.63" y="-782.10999"/><text x="2485.5601" y="-187.89999"><tspan x="2485.5601" y="-187.89999"/></text><text transform="scale(4.0128 .2492)" x="816.47998" y="-1103.15"/><text x="2096.4399" y="-660.29999"><tspan x="2096.4399" y="-660.29999"/></text><text transform="scale(4.0128 .2492)" x="719.51001" y="-2998.8101"/><text x="2677.71" y="-740.29999"><tspan x="2677.71" y="-740.29999"/></text><text transform="scale(4.0128 .2492)" x="864.37" y="-3319.8501"/><text x="844.90002" y="674.41998"><tspan x="844.90002" y="674.41998"/></text><g fill-rule="evenodd"><path d="m471.95 253.05c0 120.9-98.01 218.9-218.9 218.9-120.9 0-218.9-98.01-218.9-218.9 0-120.9 98.01-218.9 218.9-218.9 120.9 0 218.9 98.01 218.9 218.9" fill="#cd1d31"/><path d="m252.47 117.13c-27.382.332-55.42 22.936-51.41 52.13v42.594c-6.408 2.084-22.09-5.112-19.938 5.531v105.09c4.491 2.759 6.963 7.537 11.438 10.313 3.069 3.796 6.242 7.487 10.313 10.281 2.726 4.513 7.544 6.935 10.281 11.438 4.494 2.756 6.959 7.541 11.438 10.313-8.534 6.299-18.495 11.374-31.03 9.09-17.14.314-34.35-.644-51.44.5-16.03 6.478 5.572 17.476 10.406 24.719l70.813 70.813c9.713 1.318 19.644 2 29.719 2 104 0 191.04-72.51 213.34-169.75-57.27-57.33-114.46-114.76-172.03-171.78-10.889-9.07-25.21-13.307-39.25-13.25-.881-.036-1.773-.042-2.656-.031" fill-opacity=".235"/><path d="m256 1c-140.83 0-255 114.17-255 255s114.17 255 255 255 255-114.17 255-255-114.17-255-255-255m8.827 44.931c120.9 0 218.9 98 218.9 218.9s-98 218.9-218.9 218.9-218.93-98-218.93-218.9 98.03-218.9 218.93-218.9" fill-opacity=".067"/><g fill-opacity=".129"><path d="m256 4.433c-138.94 0-251.57 112.63-251.57 251.57s112.63 251.57 251.57 251.57 251.57-112.63 251.57-251.57-112.63-251.57-251.57-251.57m5.885 38.556c120.9 0 218.9 98 218.9 218.9s-98 218.9-218.9 218.9-218.93-98-218.93-218.9 98.03-218.9 218.93-218.9"/><path d="m256 8.356c-136.77 0-247.64 110.87-247.64 247.64s110.87 247.64 247.64 247.64 247.64-110.87 247.64-247.64-110.87-247.64-247.64-247.64m2.942 31.691c120.9 0 218.9 98 218.9 218.9s-98 218.9-218.9 218.9-218.93-98-218.93-218.9 98.03-218.9 218.93-218.9"/></g><path d="m253.04 7.859c-135.42 0-245.19 109.78-245.19 245.19 0 135.42 109.78 245.19 245.19 245.19 135.42 0 245.19-109.78 245.19-245.19 0-135.42-109.78-245.19-245.19-245.19zm0 26.297c120.9 0 218.9 98 218.9 218.9s-98 218.9-218.9 218.9-218.93-98-218.93-218.9 98.03-218.9 218.93-218.9z" fill="#fff" stroke="#000" stroke-opacity=".31" stroke-width="4.904"/></g><text x="729.64001" y="231.36"><tspan x="729.64001" y="231.36"/></text><text transform="scale(4.0128 .2492)" x="378.91" y="579.25"/><text x="1310.91" y="151.36"><tspan x="1310.91" y="151.36"/></text><text transform="scale(4.0128 .2492)" x="523.76001" y="258.22"/><text x="239.33" y="-29.900999"><tspan x="239.33" y="-29.900999"/></text><text transform="scale(4.0128 .2492)" x="256.72" y="-469.14001"/><text x="1337.38" y="-246.37"><tspan x="1337.38" y="-246.37"/></text><text transform="scale(4.0128 .2492)" x="530.35999" y="-1337.8"/><text x="1918.65" y="-326.38"><tspan x="1918.65" y="-326.38"/></text><text transform="scale(4.0128 .2492)" x="675.21002" y="-1658.84"/><text x="1529.53" y="-798.78003"><tspan x="1529.53" y="-798.78003"/></text><text transform="scale(4.0128 .2492)" x="578.23999" y="-3554.49"/><text x="2110.79" y="-878.78003"><tspan x="2110.79" y="-878.78003"/></text><text transform="scale(4.0128 .2492)" x="723.09003" y="-3875.52"/><text x="277.98999" y="535.94"><tspan x="277.98999" y="535.94"/></text><text x="-27646.869" y="1125.0699"><tspan x="-27646.869" y="1125.0699"/></text><text transform="scale(4.0128 .2492)" x="504.32999" y="-8584.7002"/><text x="-27781.609" y="2037.09"><tspan x="-27781.609" y="2037.09"/></text><text transform="scale(4.0128 .2492)" x="470.79001" y="-4925.02"/><g transform="matrix(23.272 0 0 23.272 -520.02 -260.06)"><g fill="#555753"><text transform="scale(1.0508 .95163)" x="-549.96002" y="-204.06"><tspan x="-549.96002" y="-204.06"/></text><text transform="scale(4.2168 .23715)" x="57.980999" y="-1164.37"/><text transform="scale(1.0508 .95163)" x="-145.92999" y="-239.50999"><tspan x="-145.92999" y="-239.50999"/></text><text transform="scale(4.2168 .23715)" x="68.040001" y="-1146.0601"/><text x="-1695.66" y="-74.269997"><tspan x="-1695.66" y="-74.269997"/></text><text transform="scale(4.0128 .2492)" x="-117.54" y="-838.39001"/></g><g><text stroke="#cd1d31" x="-1086.23" y="-599.63"><tspan x="-1086.23" y="-599.63"/></text><text transform="scale(4.0128 .2492)" x="47.040001" y="-2969.1201"/><text stroke="#cd1d31" x="-1092.03" y="-560.44"><tspan x="-1092.03" y="-560.44"/></text><text transform="scale(4.0128 .2492)" x="45.592999" y="-2811.8501"/></g><g fill="#555753"><g stroke="#cd1d31"><text transform="scale(1.0508 .95163)" x="-474.37" y="-896.71002"><tspan x="-474.37" y="-896.71002"/></text><text transform="scale(4.2168 .23715)" x="76.82" y="-3943.8701"/><text transform="scale(1.0508 .95163)" x="-70.349998" y="-932.15997"><tspan x="-70.349998" y="-932.15997"/></text><text transform="scale(4.2168 .23715)" x="86.870003" y="-3925.5601"/><text x="-1616.23" y="-733.41998"><tspan x="-1616.23" y="-733.41998"/></text></g><text transform="scale(4.0128 .2492)" x="-97.75" y="-3483.46"/></g><g><text stroke="#cd1d31" x="-356.79999" y="-887.07001"><tspan x="-356.79999" y="-887.07001"/></text><text transform="scale(4.0128 .2492)" x="216.10001" y="-4100.0298"/><text stroke="#cd1d31" x="542.82001" y="-1010.89"><tspan x="542.82001" y="-1010.89"/></text><text transform="scale(4.0128 .2492)" x="440.29001" y="-4596.8901"/></g></g><text x="188.67" y="33.970001"><tspan x="188.67" y="33.970001"/></text><text transform="scale(4.0128 .2492)" x="244.10001" y="-212.84"/><text x="769.94" y="-46.029999"><tspan x="769.94" y="-46.029999"/></text><text transform="scale(4.0128 .2492)" x="388.95001" y="-533.87"/><text x="-301.64001" y="-227.28999"><tspan x="-301.64001" y="-227.28999"/></text><text transform="scale(4.0128 .2492)" x="121.91" y="-1261.23"/><text x="796.40997" y="-443.76001"><tspan x="796.40997" y="-443.76001"/></text><text transform="scale(4.0128 .2492)" x="395.54999" y="-2129.8899"/><text x="1377.6801" y="-523.77002"><tspan x="1377.6801" y="-523.77002"/></text><text transform="scale(4.0128 .2492)" x="540.40002" y="-2450.9299"/><text x="988.56" y="-996.16998"><tspan x="988.56" y="-996.16998"/></text><text transform="scale(4.0128 .2492)" x="443.42999" y="-4346.5801"/><text x="1569.8199" y="-1076.17"><tspan x="1569.8199" y="-1076.17"/></text><text transform="scale(4.0128 .2492)" x="588.27002" y="-4667.6099"/><g transform="translate(-540.97 -197.39)"><text x="277.98999" y="535.94"><tspan x="277.98999" y="535.94"/></text><text x="-860.84003" y="11.553"><tspan x="-860.84003" y="11.553"/></text><text x="-3219.6699" y="289.67001"><tspan x="-3219.6699" y="289.67001"/></text><text x="-2931.46" y="62.380001"><tspan x="-2931.46" y="62.380001"/></text><text x="1263.14" y="-194.52"><tspan x="1263.14" y="-194.52"/></text><text x="-864.78998" y="-49.48"><tspan x="-864.78998" y="-49.48"/></text><text x="-3223.6201" y="228.64"><tspan x="-3223.6201" y="228.64"/></text><text x="-2935.4099" y="1.35"><tspan x="-2935.4099" y="1.35"/></text></g><path d="m255.13 117.16c-26.871 0-54.06 17.933-54.06 45.16v49.53h-19.938v110.63h60.63c-.136.623-.219 1.317-.219 2.156v41.28h-17.03c-5.679 0-10.57 3.259-12.938 8h-65.25c-5.965 0-10.781 2.858-10.781 6.406v.125c0 3.548 4.816 6.406 10.781 6.406h65.25c2.366 4.746 7.255 8 12.938 8h63c5.682 0 10.571-3.254 12.938-8h65.25c5.965 0 10.781-2.858 10.781-6.406v-.125c0-3.548-4.816-6.406-10.781-6.406h-65.25c-2.368-4.741-7.259-8-12.938-8h-17.03v-41.28c0-.84-.082-1.533-.219-2.156h60.63v-110.63h-20.531v-50.906c0-20.458-21.15-43.781-55.22-43.781m-.406 24.813h.031c14.468-.076 30.22 10.01 30.22 25.406v44.47h-59.34l.031-.031v-44.25c0-16.693 16.616-25.529 29.06-25.594m.688 94.12c8.278 0 15 6.722 15 15 0 4.936-2.411 9.298-6.094 12.03l5.938 33.375h-29.438l5.906-33.19c-3.809-2.718-6.313-7.183-6.313-12.219 0-8.278 6.722-14.969 15-14.969v-.031" fill="#fff" fill-rule="evenodd"/></svg>